<?xml version="1.0" encoding="UTF-8" standalone="no"?>
<!DOCTYPE svg PUBLIC "-//W3C//DTD SVG 1.1//EN" "http://www.w3.org/Graphics/SVG/1.1/DTD/svg11.dtd">
<svg width="100%" height="100%" viewBox="0 0 382 382" version="1.1" xmlns="http://www.w3.org/2000/svg" xmlns:xlink="http://www.w3.org/1999/xlink" xml:space="preserve" xmlns:serif="http://www.serif.com/" style="fill-rule:evenodd;clip-rule:evenodd;stroke-linejoin:round;stroke-miterlimit:1.41421;">
    <g transform="matrix(1,0,0,1,-9.62025,-8.60759)">
        <path d="M200.38,8.608C305.663,8.608 391.139,94.084 391.139,199.367C391.139,304.65 305.663,390.127 200.38,390.127C95.097,390.127 9.62,304.65 9.62,199.367C9.62,94.084 95.097,8.608 200.38,8.608ZM197.076,348.572C196.508,350.488 136.256,349.631 93.056,303.998C44.133,252.322 50.847,204.045 51.217,202.84L197.076,348.572ZM54.471,166.437C54.471,166.437 69.935,78.021 163.802,54.962C266.678,29.69 321.003,111.588 321.003,111.588L300.507,130.268C300.507,130.268 263.324,66.791 173.339,80.948C113.781,90.317 85.642,157.939 85.642,157.939L241.591,313.888C241.591,313.888 266.484,307.942 288.989,283.628C314.206,256.383 318.011,230.012 318.011,230.012L254.064,229.95L254.064,200.068L349.943,200.039C349.943,200.039 351.774,249.947 318.148,292.014C279.871,339.899 233.576,345.613 233.576,345.613L54.471,166.437Z" style="fill:white;"/>
    </g>
</svg>
